<svg width="128" height="95" viewBox="0 0 128 95" fill="none" xmlns="http://www.w3.org/2000/svg">
<path opacity="0.4" fill-rule="evenodd" clip-rule="evenodd" d="M74 49C71.7909 49 70 47.2091 70 45C70 42.7909 71.7909 41 74 41C76.2091 41 78 42.7909 78 45C78 47.2091 76.2091 49 74 49ZM24 49C21.7909 49 20 47.2091 20 45C20 42.7909 21.7909 41 24 41C26.2091 41 28 42.7909 28 45C28 47.2091 26.2091 49 24 49ZM99 49C96.7909 49 95 47.2091 95 45C95 42.7909 96.7909 41 99 41C101.209 41 103 42.7909 103 45C103 47.2091 101.209 49 99 49ZM124 49C121.791 49 120 47.2091 120 45C120 42.7909 121.791 41 124 41C126.209 41 128 42.7909 128 45C128 47.2091 126.209 49 124 49ZM49 55C43.4772 55 39 50.5228 39 45C39 39.4772 43.4772 35 49 35C54.5228 35 59 39.4772 59 45C59 50.5228 54.5228 55 49 55ZM49 53C53.4183 53 57 49.4183 57 45C57 40.5817 53.4183 37 49 37C44.5817 37 41 40.5817 41 45C41 49.4183 44.5817 53 49 53Z" fill="white"/>
<path fill-rule="evenodd" clip-rule="evenodd" d="M49 49C46.7909 49 45 47.2091 45 45C45 42.7909 46.7909 41 49 41C51.2092 41 53 42.7909 53 45C53 47.2091 51.2092 49 49 49ZM41.929 52.0711L43.3432 50.6569C44.7909 52.1046 46.7909 53 49 53C53.4183 53 57 49.4183 57 45C57 40.5817 53.4183 37 49 37V35C54.5229 35 59 39.4772 59 45C59 50.5228 54.5229 55 49 55C46.2386 55 43.7386 53.8807 41.929 52.0711Z" fill="white"/>
</svg>
